<?xml version="1.0" encoding="iso-8859-1"?>
<!-- Generator: Adobe Illustrator 19.0.0, SVG Export Plug-In . SVG Version: 6.00 Build 0)  -->
<svg version="1.1" id="Capa_1" xmlns="http://www.w3.org/2000/svg" xmlns:xlink="http://www.w3.org/1999/xlink" x="0px" y="0px"
	 viewBox="0 0 511.998 511.998" style="enable-background:new 0 0 511.998 511.998;" xml:space="preserve">
<g>
	<g>
		<g>
			<path d="M245.764,317.448c-5.363-7.012-11.639-13.288-18.651-18.651c-0.019-0.015-0.038-0.029-0.057-0.043
				c-16.662-12.725-37.461-20.297-59.997-20.297c-22.54,0-43.34,7.573-60.004,20.302c-0.016,0.013-0.032,0.024-0.048,0.037
				c-7.013,5.364-13.29,11.641-18.654,18.654c-0.014,0.017-0.026,0.035-0.04,0.052c-12.727,16.663-20.299,37.463-20.299,60.001
				c0,22.541,7.574,43.343,20.304,60.007c0.012,0.014,0.022,0.03,0.034,0.044c5.364,7.014,11.642,13.292,18.656,18.656
				c0.014,0.011,0.028,0.021,0.041,0.032c16.664,12.731,37.467,20.306,60.009,20.306c22.539,0,43.34-7.573,60.003-20.301
				c0.016-0.013,0.033-0.025,0.05-0.038c7.013-5.364,13.29-11.641,18.654-18.654c0.014-0.017,0.026-0.034,0.039-0.051
				c12.727-16.663,20.3-37.463,20.3-60.002c0-22.536-7.571-43.333-20.295-59.995C245.794,317.487,245.78,317.467,245.764,317.448z
				 M229.838,321.705l-30.197,30.197c-2.043-2.594-4.387-4.938-6.981-6.981l30.197-30.197
				C225.317,316.913,227.648,319.244,229.838,321.705z M167.059,351.038c14.592,0,26.464,11.872,26.464,26.464
				c0,14.592-11.872,26.464-26.464,26.464s-26.464-11.872-26.464-26.464S152.467,351.038,167.059,351.038z M137.34,319.588h59.44
				l-18.115,18.115c-3.685-1.077-7.577-1.665-11.605-1.665s-7.92,0.588-11.605,1.665L137.34,319.588z M167.059,293.457
				c15.177,0,29.415,4.064,41.718,11.131h-83.435C137.645,297.521,151.882,293.457,167.059,293.457z M111.263,314.724l30.197,30.197
				c-2.594,2.043-4.938,4.387-6.981,6.981l-30.197-30.197C106.471,319.244,108.802,316.913,111.263,314.724z M95.246,421.122
				c-7.757-12.724-12.231-27.659-12.231-43.62s4.474-30.896,12.231-43.62l32.015,32.015c-1.077,3.685-1.665,7.577-1.665,11.606
				c0,4.028,0.588,7.92,1.665,11.605L95.246,421.122z M104.281,433.299l30.197-30.197c2.043,2.594,4.387,4.938,6.981,6.981
				l-30.197,30.197C108.802,438.09,106.471,435.76,104.281,433.299z M167.059,461.547c-15.961,0-30.896-4.474-43.62-12.231
				l32.015-32.015c3.685,1.077,7.577,1.665,11.605,1.665s7.92-0.588,11.605-1.665l32.015,32.015
				C197.956,457.073,183.02,461.547,167.059,461.547z M222.857,440.28l-30.197-30.197c2.594-2.043,4.938-4.387,6.981-6.981
				l30.197,30.197C227.648,435.76,225.318,438.09,222.857,440.28z M238.873,421.122l-32.015-32.015
				c1.076-3.685,1.665-7.577,1.665-11.605c0-4.029-0.588-7.92-1.665-11.606l32.015-32.014c7.757,12.724,12.231,27.659,12.231,43.62
				C251.105,393.463,246.631,408.398,238.873,421.122z"/>
			<path d="M426.515,397.888c-9.893,0-19.203,2.534-27.323,6.982c-0.141-1.352-0.218-2.717-0.218-4.095V305.59
				c3.303-4.96,5.233-10.909,5.233-17.301c0-6.393-1.93-12.342-5.233-17.301V243.53c0-18.695-15.209-33.904-33.904-33.904h-54.694
				v-1.878c0-7.245-2.286-14.179-6.5-19.948c0.165-0.967,0.27-1.955,0.27-2.968v-8.211c0-12.808-10.42-23.228-23.227-23.228H200.69
				c-11.867,0-21.678,8.948-23.056,20.45h-24.499V96.14c0-26.263-10.227-50.955-28.798-69.527
				c-5.912-5.912-13.772-9.168-22.132-9.169c-5.8,0-11.358,1.57-16.193,4.504L75.449,11.386C68.107,4.044,58.344,0,47.96,0H35.928
				c-4.142,0-7.5,3.358-7.5,7.5s3.358,7.5,7.5,7.5H47.96c6.377,0,12.373,2.483,16.882,6.993l10.563,10.563
				c-2.932,4.834-4.501,10.389-4.501,16.187c-0.001,8.36,3.255,16.22,9.166,22.131c6.749,6.749,10.465,15.723,10.465,25.266v9.098
				c0,4.142,3.358,7.5,7.5,7.5c4.142,0,7.5-3.358,7.5-7.5V96.14c0-13.549-5.277-26.289-14.858-35.872
				c-3.078-3.079-4.773-7.171-4.773-11.525s1.695-8.447,4.774-11.525c3.079-3.079,7.172-4.774,11.525-4.774
				s8.446,1.696,11.525,4.775c15.738,15.739,24.405,36.664,24.405,58.921v77.705h-5.039c-4.142,0-7.5,3.358-7.5,7.5
				c0,4.142,3.358,7.5,7.5,7.5h5.039v57.303c-11.48,2.526-22.417,6.517-32.599,11.777V140.116c0-4.142-3.358-7.5-7.5-7.5
				c-4.142,0-7.5,3.358-7.5,7.5v126.846c-35.005,24.307-57.973,64.789-57.973,110.54c0,74.162,60.334,134.496,134.496,134.496
				c38.466,0,75.19-16.58,100.756-45.491c2.744-3.103,2.453-7.842-0.649-10.586c-3.104-2.745-7.843-2.454-10.587,0.65
				c-22.721,25.692-55.35,40.427-89.52,40.427c-65.89,0-119.496-53.606-119.496-119.496c0-41.981,21.764-78.971,54.599-100.291
				c0.036-0.024,0.072-0.046,0.107-0.07c18.678-12.1,40.927-19.135,64.791-19.135c19.541,0,38.001,4.715,54.304,13.067
				c0.028,0.016,0.058,0.029,0.086,0.044c38.621,19.825,65.107,60.07,65.107,106.385c0,18.022-3.93,35.35-11.679,51.504
				c-1.792,3.735-0.217,8.215,3.518,10.006c3.736,1.792,8.215,0.216,10.006-3.518c8.73-18.196,13.155-37.707,13.155-57.993
				c0-20.723-4.715-40.365-13.122-57.914h95.54v81.187c0,4.858,0.656,9.612,1.898,14.176
				c-10.141,10.304-16.412,24.427-16.412,39.992c0,31.46,25.595,57.055,57.056,57.055c31.46,0,57.055-25.595,57.055-57.055
				C483.57,423.482,457.975,397.888,426.515,397.888z M192.462,176.622L192.462,176.622c0-4.537,3.691-8.228,8.228-8.228h80.228
				c4.537,0,8.227,3.691,8.227,8.228v8.211c0,1.467-1.193,2.661-2.66,2.661h-91.362c-1.467,0-2.661-1.194-2.661-2.661V176.622z
				 M295.375,304.588h-15.35c-8.046-12.422-18.082-23.44-29.655-32.598h45.005V304.588z M295.375,256.99h-68.649
				c-17.991-8.944-38.25-13.984-59.667-13.984c-4.701,0-9.346,0.245-13.924,0.718v-54.879h24.804
				c1.824,7.809,8.827,13.649,17.183,13.649h91.362c2.706,0,5.261-0.63,7.556-1.722c0.874,2.196,1.335,4.555,1.335,6.977V256.99z
				 M383.974,300.221c-2.91,2.7-6.792,4.366-11.065,4.366h-62.533V271.99h62.533c4.273,0,8.156,1.666,11.065,4.366V300.221z
				 M383.974,259.017c-3.443-1.306-7.171-2.027-11.065-2.027h-62.533v-32.363h54.694c10.424,0,18.904,8.48,18.904,18.904V259.017z
				 M426.515,496.998c-23.189,0-42.056-18.866-42.056-42.055c0-9.312,3.047-17.923,8.189-24.898
				c1.921,2.941,4.145,5.712,6.656,8.276c-2.97,4.844-4.686,10.536-4.686,16.622c0,17.587,14.309,31.896,31.896,31.896
				c17.587,0,31.896-14.308,31.896-31.896c0-17.587-14.309-31.896-31.896-31.896c-6.076,0-11.76,1.71-16.599,4.671
				c-2.408-2.477-4.444-5.219-6.083-8.161c6.55-4.213,14.332-6.669,22.682-6.669c23.189,0,42.055,18.866,42.055,42.055
				C468.57,478.132,449.704,496.998,426.515,496.998z M431.819,449.64l-10.695-10.695c1.696-0.573,3.505-0.897,5.391-0.897
				c9.316,0,16.896,7.579,16.896,16.896c0,9.316-7.579,16.896-16.896,16.896c-9.317,0-16.896-7.579-16.896-16.896
				c0-1.887,0.324-3.695,0.897-5.391l10.694,10.694c1.465,1.464,3.385,2.197,5.304,2.197c1.919,0,3.839-0.732,5.304-2.197
				C434.747,457.317,434.747,452.568,431.819,449.64z"/>
		</g>
	</g>
</g>
<g>
</g>
<g>
</g>
<g>
</g>
<g>
</g>
<g>
</g>
<g>
</g>
<g>
</g>
<g>
</g>
<g>
</g>
<g>
</g>
<g>
</g>
<g>
</g>
<g>
</g>
<g>
</g>
<g>
</g>
</svg>
